<svg xmlns="http://www.w3.org/2000/svg" width="21" height="22"><path d="M19.3 2h-2.9V.6c0-.3-.3-.6-.6-.6-.4 0-.7.3-.7.6V2h-4V.6c0-.3-.2-.6-.6-.6-.4 0-.7.3-.7.6V2H6V.6c0-.3-.3-.6-.7-.6-.3 0-.6.3-.6.6V2H1.8C.8 2 0 2.8 0 4v16.3c0 1 .8 1.8 1.8 1.8h17.5c1 0 1.7-.8 1.7-1.8V3.9c0-1-.8-1.9-1.7-1.9zm.4 18.2a.4.4 0 0 1-.4.4H1.7a.5.5 0 0 1-.4-.4V3.9a.5.5 0 0 1 .5-.5h2.8v1.4c0 .4.3.7.7.7.3 0 .6-.3.6-.7V3.4h4v1.4c0 .4.2.7.6.7.4 0 .7-.3.7-.7V3.4H15v1.4c0 .4.3.7.7.7.3 0 .6-.3.6-.7V3.4h2.9c.2 0 .4.2.4.5v16.3z"/><path d="M4.6 8.2h2.6v2H4.6zm0 3.5h2.6v2H4.6zm0 3.4h2.6v2H4.6zm4.6 0h2.6v2H9.2zm0-3.4h2.6v2H9.2zm0-3.5h2.6v2H9.2zm4.6 7h2.6v2h-2.6zm0-3.5h2.6v2h-2.6zm0-3.5h2.6v2h-2.6z"/></svg>